<?xml version="1.0" encoding="UTF-8" standalone="no"?>
<!-- Created with Inkscape (http://www.inkscape.org/) -->

<svg
   xmlns:dc="http://purl.org/dc/elements/1.1/"
   xmlns:cc="http://creativecommons.org/ns#"
   xmlns:rdf="http://www.w3.org/1999/02/22-rdf-syntax-ns#"
   xmlns:svg="http://www.w3.org/2000/svg"
   xmlns="http://www.w3.org/2000/svg"
   xmlns:sodipodi="http://sodipodi.sourceforge.net/DTD/sodipodi-0.dtd"
   xmlns:inkscape="http://www.inkscape.org/namespaces/inkscape"
   width="1585.9482"
   height="193.90086"
   viewBox="0 0 419.61549 51.302939"
   version="1.1"
   id="svg8"
   sodipodi:docname="icon__simple.svg"
   inkscape:export-filename="/home/john/bitmap.png"
   inkscape:export-xdpi="96"
   inkscape:export-ydpi="96"
   inkscape:version="0.92.3 (2405546, 2018-03-11)">
  <defs
     id="defs2"><style
   id="style815"
   type="text/css">
   <![CDATA[
    .fil2 {fill:black}
    .fil1 {fill:white}
    .fil0 {fill:url(#id0)}
   ]]>
  </style>
<linearGradient
   y2="3047.25"
   x2="2731.1899"
   y1="52.82"
   x1="3533.55"
   gradientUnits="userSpaceOnUse"
   id="id0"
   gradientTransform="matrix(0.00819334,0,0,0.00819334,68.127026,195.78409)">
   <stop
   id="stop817"
   style="stop-opacity:1; stop-color:#AC00A3"
   offset="0" />

   <stop
   id="stop819"
   style="stop-opacity:1; stop-color:#14003D"
   offset="1" />

  </linearGradient>

  
  
  
  
  
  
  
 </defs>
  <sodipodi:namedview
     id="base"
     pagecolor="#ffffff"
     bordercolor="#666666"
     borderopacity="1.0"
     inkscape:pageopacity="0.0"
     inkscape:pageshadow="2"
     inkscape:zoom="0.35"
     inkscape:cx="198.60821"
     inkscape:cy="-39.139509"
     inkscape:document-units="mm"
     inkscape:current-layer="layer1"
     showgrid="false"
     units="px"
     inkscape:window-width="1920"
     inkscape:window-height="1015"
     inkscape:window-x="0"
     inkscape:window-y="1080"
     inkscape:window-maximized="1"
     fit-margin-top="0"
     fit-margin-left="0"
     fit-margin-right="0"
     fit-margin-bottom="0" />
  <metadata
     id="metadata5">
    <rdf:RDF>
      <cc:Work
         rdf:about="">
        <dc:format>image/svg+xml</dc:format>
        <dc:type
           rdf:resource="http://purl.org/dc/dcmitype/StillImage" />
        <dc:title></dc:title>
      </cc:Work>
    </rdf:RDF>
  </metadata>
  <g
     inkscape:label="Layer 1"
     inkscape:groupmode="layer"
     id="layer1"
     transform="translate(-14.033337,-178.74431)">
    <g
       id="g880"
       transform="matrix(2.0197999,0,0,2.0197999,-149.75545,-216.70037)">
      <rect
         style="clip-rule:evenodd;fill:url(#id0);fill-rule:evenodd;stroke-width:0.00819334;image-rendering:optimizeQuality;shape-rendering:geometricPrecision;text-rendering:geometricPrecision"
         class="fil0"
         x="81.091591"
         y="195.78409"
         width="25.400009"
         height="25.400009"
         rx="2.1650081"
         ry="2.1650081"
         id="rect825" />
      <path
         style="clip-rule:evenodd;fill:#ffffff;fill-rule:evenodd;stroke-width:0.00819334;image-rendering:optimizeQuality;shape-rendering:geometricPrecision;text-rendering:geometricPrecision"
         inkscape:connector-curvature="0"
         class="fil1"
         d="m 83.631611,216.10406 v 2.21991 c 0.663661,-0.17083 1.301184,-0.40696 1.905115,-0.70127 v -1.46898 -1.23433 c -0.582628,0.40311 -1.222528,0.72921 -1.905115,0.96362 v 0.22114 z m 2.540017,1.18083 c 0.586316,-0.33921 1.135597,-0.73527 1.640389,-1.18083 0.318229,-0.28086 0.618679,-0.58139 0.899629,-0.89962 0.445472,-0.50471 0.84162,-1.05408 1.180824,-1.64039 0.45473,-0.78607 0.807208,-1.63892 1.039079,-2.54002 0.209012,-0.8118 0.320114,-1.66292 0.320114,-2.54002 0,-0.87709 -0.111102,-1.72822 -0.320114,-2.54001 -0.231871,-0.90111 -0.584431,-1.75387 -1.039079,-2.54002 -0.339204,-0.58632 -0.73527,-1.13568 -1.180824,-1.64039 -0.280868,-0.31823 -0.5814,-0.61868 -0.899629,-0.89963 -0.50471,-0.44547 -1.054073,-0.84162 -1.640389,-1.18082 v 1.13871 1.71593 c 0.310692,0.26579 0.600408,0.55551 0.8662,0.8662 0.63269,0.74002 1.12978,1.5995 1.452679,2.54002 0.08644,0.25202 0.160426,0.5097 0.221139,0.77263 0.131175,0.56788 0.200573,1.1596 0.200573,1.76738 0,0.60778 -0.0694,1.19951 -0.200573,1.76739 -0.06071,0.26292 -0.134699,0.52068 -0.221139,0.77263 -0.322899,0.94051 -0.819989,1.79999 -1.452679,2.54002 -0.265792,0.31069 -0.555508,0.60041 -0.8662,0.8662 v 1.72338 1.13118 z m -0.634902,-17.9394 c -0.603931,-0.29431 -1.241373,-0.53052 -1.905115,-0.70127 v 2.2199 0.22114 c 0.682587,0.23441 1.322487,0.56051 1.905115,0.96362 v -1.22679 -1.47652 z"
         id="path827" />
      <path
         style="clip-rule:evenodd;fill:#ffffff;fill-rule:evenodd;stroke-width:0.00819334;image-rendering:optimizeQuality;shape-rendering:geometricPrecision;text-rendering:geometricPrecision"
         inkscape:connector-curvature="0"
         class="fil1"
         d="m 103.95159,200.86412 v -2.2199 c -0.21451,0.0552 -0.42622,0.11733 -0.63491,0.18591 v 2.03399 0.47071 c 0.20713,-0.092 0.41877,-0.17542 0.63491,-0.24957 z m -1.26997,-1.80146 c -0.2154,0.0871 -0.4272,0.18156 -0.63499,0.28291 v 1.47341 1.22982 c 0.20484,-0.14166 0.41672,-0.2739 0.63499,-0.3959 v -0.78869 -1.80147 z m -1.26997,0.62072 c -0.58631,0.33921 -1.13568,0.73527 -1.640388,1.18083 -0.31823,0.28086 -0.618679,0.5814 -0.899629,0.89963 -0.445472,0.50471 -0.84162,1.05407 -1.180824,1.64038 -0.45473,0.78607 -0.807208,1.63892 -1.039079,2.54002 -0.209013,0.8118 -0.320114,1.66292 -0.320114,2.54002 0,0.8771 0.111101,1.72822 0.320114,2.54002 0.231871,0.9011 0.58443,1.75386 1.039079,2.54001 0.339204,0.58632 0.73527,1.13568 1.180824,1.64039 0.280868,0.31823 0.581399,0.61868 0.899629,0.89963 0.504708,0.44547 1.054078,0.84162 1.640388,1.18082 v -1.13117 -1.72338 c -0.31069,-0.2658 -0.60041,-0.55551 -0.8662,-0.8662 -0.632689,-0.74003 -1.129779,-1.59951 -1.452679,-2.54002 -0.08644,-0.25203 -0.160425,-0.50971 -0.221138,-0.77263 -0.131175,-0.56788 -0.200573,-1.15961 -0.200573,-1.76739 0,-0.60778 0.0694,-1.1995 0.200573,-1.76738 0.06071,-0.26293 0.134699,-0.52069 0.221138,-0.77264 0.3229,-0.94051 0.81999,-1.79999 1.452679,-2.54001 0.26579,-0.3107 0.55551,-0.60041 0.8662,-0.8662 v -1.71897 -1.13559 z m 0.63498,17.9394 c 0.60394,0.29431 1.2413,0.53052 1.90504,0.70127 v -2.2199 -0.22114 c -0.68259,-0.23433 -1.32241,-0.56043 -1.90504,-0.96354 v 1.23416 1.46899 z"
         id="path829" />
      <polygon
         transform="matrix(0.00819334,0,0,0.00819334,68.127026,195.78409)"
         style="clip-rule:evenodd;fill:#ffffff;fill-rule:evenodd;image-rendering:optimizeQuality;shape-rendering:geometricPrecision;text-rendering:geometricPrecision"
         class="fil1"
         points="3287.38,2480.06 3287.38,2170.05 3287.38,1860.05 3287.38,1550.04 3287.38,1240.03 3287.38,930.02 3287.38,620.02 3287.38,310.01 3132.37,310.01 2977.37,310.01 2977.37,620.02 2977.37,930.02 2977.37,1240.03 2977.37,1550.04 2977.37,1860.05 2977.37,2170.05 2977.37,2480.06 2977.37,2790.07 3132.37,2790.07 3287.38,2790.07 "
         id="polygon831" />
    </g>
    <g
       id="g874"
       transform="matrix(6.8875278,0,0,6.8875278,-388.37234,-1365.3182)"
       style="fill:#333333">
      <path
         style="clip-rule:evenodd;fill:#333333;fill-rule:evenodd;stroke-width:0.00819334;image-rendering:optimizeQuality;shape-rendering:geometricPrecision;text-rendering:geometricPrecision"
         inkscape:connector-curvature="0"
         class="fil2"
         d="m 115.41546,228.27437 -0.29742,-0.29766 v 0.29766 1.89791 h 0.84932 v -1.04892 -0.2975 z m 2.78787,-1.60237 h -2.22998 v 0.89709 h 0.73142 l 0.11847,0.11847 h 0.95272 c 0.27391,0 0.41229,-0.15362 0.46768,-0.21581 0.0462,-0.0472 0.0829,-0.12511 0.10397,-0.18689 0.0203,-0.0595 0.0351,-0.12716 0.0351,-0.18943 0,-0.0248 -0.003,-0.0522 -0.007,-0.0802 -0.004,-0.026 -0.008,-0.0468 -0.0124,-0.0626 -0.0109,-0.0503 -0.0293,-0.0988 -0.0552,-0.14519 -0.0264,-0.0475 -0.0594,-0.0912 -0.0995,-0.13052 l -0.005,-0.005 z m -7.10043,1.73281 h 0.2721 l 1.79852,1.78811 h 1.36083 l -1.81966,-1.78811 h 0.39893 0.0759 c 0.16789,-0.003 0.33167,-0.0383 0.48333,-0.10283 0.15133,-0.0643 0.29111,-0.15821 0.41139,-0.27841 0.11667,-0.11561 0.2086,-0.25203 0.27316,-0.40164 0.0651,-0.15067 0.10234,-0.31413 0.10848,-0.4825 0.004,-0.0482 0.006,-0.0907 0.006,-0.13962 0,-0.0512 -0.003,-0.0999 -0.009,-0.14469 -0.006,-0.0455 -0.0149,-0.0916 -0.0271,-0.13773 -0.041,-0.1229 -0.0601,-0.2027 -0.12553,-0.31987 -0.0532,-0.0951 -0.11978,-0.18394 -0.19893,-0.26333 -0.0865,-0.0863 -0.18304,-0.15838 -0.28701,-0.2145 -0.10471,-0.0564 -0.21762,-0.0977 -0.3356,-0.12192 l -0.004,-5.7e-4 c -0.0388,-0.009 -0.0769,-0.0151 -0.11397,-0.0186 -0.0351,-0.003 -0.0756,-0.005 -0.11937,-0.005 h -3.01204 v 0.90438 h 3.28127 c 0.31168,0.48169 -0.12921,0.88611 -0.39074,0.88611 h -2.60433 -0.27243 v 0.69217 1.92208 h 0.84907 v -1.07439 -0.69972 z m -4.38459,-1.751 -0.41278,0.68119 -1.74256,2.85792 h 0.99484 l 1.24252,-2.03998 0.4127,-0.68029 -0.49464,-0.81876 1.90692,3.15599 0.23482,0.38312 h 0.99607 l -2.64366,-4.35205 -0.49415,0.81302 z m 12.56433,-0.002 c -0.0268,-0.0788 -0.0602,-0.1542 -0.0999,-0.22532 -0.0574,-0.10291 -0.12921,-0.19869 -0.21434,-0.28382 -0.12503,-0.1256 -0.2703,-0.22294 -0.42884,-0.28873 -0.15657,-0.0652 -0.3274,-0.0994 -0.50512,-0.0994 h -2.9165 v 1.23277 l 0.34191,0.3433 1.06071,1.06038 h 1.50651 c 0.17771,0 0.3483,-0.0343 0.50504,-0.0994 0.15846,-0.0658 0.3038,-0.16313 0.42884,-0.28799 0.019,-0.0191 0.0371,-0.0387 0.0549,-0.059 l 0.0504,-0.0592 c 0.0923,-0.11938 0.16354,-0.25031 0.21098,-0.38869 0.0473,-0.13757 0.072,-0.28374 0.072,-0.43507 0,-0.0555 -0.003,-0.10807 -0.009,-0.15658 -0.006,-0.0496 -0.0162,-0.0997 -0.0293,-0.1492 l -0.0279,-0.10413 z m -19.01838,-0.88841 h -0.939617 l 2.060457,4.34223 1.02073,-2.12822 1.00631,2.12076 0.47513,-0.97132 -1.05244,-2.22596 -0.43359,-0.91348 -1.01589,2.14321 z m 4.27381,0.0137 -0.72462,1.53281 0.47111,0.99754 1.19992,-2.53027 h -0.94641 z"
         id="path833" />
      <path
         style="clip-rule:evenodd;fill:#333333;fill-rule:evenodd;stroke-width:0.00819334;image-rendering:optimizeQuality;shape-rendering:geometricPrecision;text-rendering:geometricPrecision"
         inkscape:connector-curvature="0"
         class="fil2"
         d="m 95.213716,228.88625 c -0.116591,-0.11659 -0.210486,-0.25367 -0.278409,-0.40287 -0.06497,-0.14256 -0.105776,-0.2957 -0.119705,-0.45178 l -0.790493,-0.79057 c -0.02663,0.0907 -0.04793,0.18246 -0.0635,0.27488 -0.02122,0.12561 -0.03228,0.25391 -0.03228,0.38321 0,0.3038 0.05957,0.59926 0.173208,0.87242 0.113559,0.273 0.281605,0.52487 0.498319,0.7415 0.216795,0.2168 0.468659,0.38492 0.741661,0.4984 0.273002,0.11356 0.568372,0.17321 0.872263,0.17321 0.312002,0 0.609912,-0.0581 0.893402,-0.17403 0.0499,-0.0245 0.102416,-0.0456 0.153461,-0.0711 0.03679,0.006 0.365095,-0.23359 0.410814,-0.27152 0.127898,-0.10611 0.244161,-0.2254 0.343465,-0.35347 0.07333,-0.0733 0.193117,-0.28439 0.251289,-0.40106 h -1.100775 c -0.04687,0.0441 -0.09619,0.0842 -0.147316,0.12069 -0.06079,0.0435 -0.123965,0.0818 -0.188365,0.11602 -0.02204,0.0127 -0.04351,0.0234 -0.06538,0.0327 -0.02442,0.0104 -0.04752,0.019 -0.07063,0.0266 -0.0653,0.0227 -0.133388,0.042 -0.203277,0.0566 -0.0685,0.014 -0.137239,0.0235 -0.205489,0.0272 -0.05842,0.004 -0.14281,-3.2e-4 -0.200983,-0.008 -0.161982,-0.0124 -0.320687,-0.0537 -0.468495,-0.12102 -0.149201,-0.068 -0.286193,-0.16182 -0.402785,-0.27841 z m -2.712077,-2.77058 v 1.0018 3.0671 h 0.849322 v -2.21794 -1.00172 -1.20622 h -0.849322 v 0.3569 z m -3.227193,1.16231 v 1.00172 1.90487 h 0.849322 v -1.05572 -1.00171 -1.51921 h 1.791719 v -0.84924 h -4.425796 v 0.84924 h 1.784837 v 0.66997 z m -12.116393,2.91511 h 0.994835 l 1.656202,-2.7188 1.411385,2.33559 0.234821,0.38321 h 0.996064 l -2.643663,-4.35222 -2.649562,4.35222 z m -1.101185,-1.11987 c -0.206636,0.14297 -0.446783,0.23507 -0.739613,0.24834 -0.212699,0 -0.382301,-0.0201 -0.581973,-0.1034 -0.162637,-0.0681 -0.31233,-0.16829 -0.441293,-0.29734 -0.128881,-0.12888 -0.229086,-0.27849 -0.297172,-0.44129 -0.06792,-0.16272 -0.103482,-0.33781 -0.103482,-0.51823 v -0.0638 l -3.28e-4,-3.3e-4 -0.0066,-1.25186 v -0.90717 h -0.856122 v 0.30152 l 3.28e-4,4.1e-4 0.0066,1.35116 v 0.56321 c 0,0.36403 0.08996,0.71659 0.254485,1.02917 0.165096,0.31355 0.405161,0.58779 0.704709,0.79401 0.184514,0.1261 0.385087,0.22319 0.595492,0.28833 0.208602,0.0644 0.428839,0.0979 0.65473,0.0979 0.269069,0 0.527979,-0.0455 0.776319,-0.13667 0.229823,-0.0618 0.443178,-0.18066 0.644324,-0.34346 0.109299,-0.0901 0.210159,-0.19197 0.300696,-0.30332 0.105202,-0.12929 0.196394,-0.27063 0.270871,-0.4195 0.07636,-0.15289 0.134125,-0.31348 0.172962,-0.47972 0.03867,-0.16567 0.05809,-0.33732 0.05809,-0.51282 v -2.21614 l -0.84924,0.005 v 2.21794 c 0,0.1805 -0.03556,0.35559 -0.103564,0.51823 -0.06792,0.1628 -0.168209,0.31249 -0.29709,0.44137 -0.04957,0.0495 -0.103974,0.0958 -0.16313,0.13847 z m -4.598676,0.24834 c -0.219172,0 -0.965831,0.032 -1.124863,-5.7e-4 -0.177304,-0.004 -0.350675,-0.0413 -0.510937,-0.10914 -0.160262,-0.0678 -0.307168,-0.1655 -0.431625,-0.2898 -0.128963,-0.12912 -0.229168,-0.278 -0.296927,-0.43949 -0.06817,-0.16223 -0.103809,-0.33732 -0.103809,-0.51773 0,-0.15936 0.02933,-0.31774 0.0839,-0.46637 0.05473,-0.14912 0.1356,-0.2889 0.238263,-0.4109 0.02368,-0.0316 0.0476,-0.0628 0.07169,-0.0869 0.0576,-0.0576 0.120197,-0.11036 0.18771,-0.15788 0.0662,-0.0467 0.136665,-0.0879 0.210978,-0.12307 l 0.0032,-0.001 c 0.08693,-0.0388 0.177713,-0.0682 0.270872,-0.0877 0.09439,-0.0197 0.190331,-0.0296 0.286684,-0.0296 0.1805,0 0.355919,0.0353 0.518721,0.10307 0.162474,0.0677 0.31192,0.16747 0.440802,0.29644 0.129208,0.12929 0.229495,0.27832 0.29709,0.4399 0.06809,0.16247 0.103564,0.33748 0.103564,0.51741 0,0.097 -0.0099,0.19303 -0.02991,0.28701 -0.01663,0.0785 -0.04031,0.15502 -0.07071,0.22884 l 0.635229,0.63359 c 0.09611,-0.15821 0.170668,-0.32692 0.223023,-0.50209 0.06071,-0.20352 0.0916,-0.41663 0.0916,-0.63351 0,-0.29553 -0.05768,-0.58091 -0.167227,-0.84399 -0.110118,-0.2644 -0.273329,-0.50783 -0.48357,-0.71807 -0.209586,-0.21008 -0.453502,-0.37312 -0.718966,-0.48341 -0.263908,-0.1097 -0.550183,-0.16739 -0.846618,-0.16739 -0.217369,0 -0.431215,0.0309 -0.635311,0.0916 -0.202376,0.0602 -0.395985,0.15002 -0.574763,0.26808 -0.07898,0.053 -0.153216,0.10922 -0.22122,0.1678 -0.0712,0.0614 -0.13773,0.12618 -0.198197,0.19304 l -5.74e-4,0.001 c -0.18689,0.20311 -0.332076,0.43629 -0.430232,0.68767 -0.09783,0.2503 -0.149119,0.51978 -0.149119,0.79647 0,0.18017 0.02253,0.36001 0.06563,0.53347 0.04342,0.17443 0.10807,0.34371 0.19197,0.50192 0.07997,0.15379 0.17968,0.29824 0.294796,0.42941 0.114871,0.13093 0.245718,0.24884 0.388037,0.34921 0.188528,0.13305 0.392215,0.23523 0.605078,0.30323 0.211798,0.0675 0.434984,0.10258 0.663906,0.10258 h 1.964599 c -0.288569,-0.28857 -0.562391,-0.56747 -0.842931,-0.86309 z m 11.4361,0.86309 h 0.849322 v -1.32552 l -0.849322,-0.84924 v 2.17468 z m 3.203105,-3.47693 v 2.30528 l -3.203105,-3.20302 v 1.20507 l 3.169594,3.16952 h 0.882668 v -4.32617 l -0.849239,0.84932 z m 10.117464,-1.08734 c -0.375337,0 -0.73863,0.0918 -1.060628,0.26014 -0.306021,0.15969 -0.576074,0.38919 -0.785332,0.67489 l 0.631707,0.6317 c 0.01647,-0.0273 0.03392,-0.0542 0.05219,-0.0808 l 0.01311,-0.0186 c 0.04301,-0.0607 0.09201,-0.11921 0.147807,-0.17517 0.132814,-0.13339 0.287996,-0.2372 0.457189,-0.30783 0.168291,-0.0703 0.350101,-0.10741 0.536991,-0.10741 0.18689,0 0.368619,0.0371 0.536992,0.10741 0.166488,0.0694 0.319294,0.17108 0.450715,0.30078 h 1.074721 c -0.03433,-0.0709 -0.07227,-0.14003 -0.113724,-0.20696 -0.132568,-0.21418 -0.301678,-0.40689 -0.501186,-0.56789 -0.139205,-0.1392 -0.488569,-0.31208 -0.676934,-0.37877 -0.24326,-0.0862 -0.501678,-0.13142 -0.763701,-0.13142 z"
         id="path835" />
    </g>
  </g>
</svg>
